<svg width="28" height="28" viewBox="0 0 28 28" fill="none" xmlns="http://www.w3.org/2000/svg">
<path d="M27.4963 16.3781H22.8713C23.2694 17.0913 23.4915 17.9116 23.4915 18.7753C23.4915 21.4671 21.3159 23.6567 18.6414 23.6567C15.9668 23.6567 13.7912 21.4671 13.7912 18.7753C13.7912 17.3159 14.5307 16.1361 15.3208 15.2373L15.3148 15.2288L23.8125 5.1759H18.1206L11.6455 12.7821L11.6514 12.8081C10.255 14.4621 9.47581 16.5647 9.47581 18.7748C9.47581 21.239 10.4294 23.5557 12.1608 25.2982C13.8916 27.0402 16.1934 28 18.6419 28C21.0903 28 23.3921 27.0402 25.1234 25.2982C26.8548 23.5562 27.8079 21.2395 27.8079 18.7748C27.8074 17.9551 27.702 17.1514 27.4963 16.3781Z" fill="#FF3E29"/>
<path d="M20.8713 0H15.1703L0 17.8272L5.7288 17.8352L20.8713 0Z" fill="#FF3E29"/>
<path d="M4.76882 0H0V4.73943H4.76882V0Z" fill="#FF3E29"/>
</svg>
