<svg width="28" height="28" viewBox="0 0 28 28" fill="none" xmlns="http://www.w3.org/2000/svg">
<g clip-path="url(#clip0_4_24)">
<path d="M13.9459 0C6.24476 0 0 6.25185 0 13.9641C0 20.1339 3.99591 25.3683 9.53706 27.2147C10.234 27.344 10.4899 26.9118 10.4899 26.5429C10.4899 26.21 10.4769 25.1099 10.471 23.9431C6.59116 24.7878 5.77248 22.2955 5.77248 22.2955C5.13811 20.6814 4.22406 20.2523 4.22406 20.2523C2.95881 19.3856 4.31944 19.4033 4.31944 19.4033C5.71988 19.5019 6.45728 20.8424 6.45728 20.8424C7.70109 22.9773 9.71972 22.36 10.5155 22.0033C10.6407 21.1007 11.0021 20.4847 11.4009 20.136C8.30342 19.7828 5.04711 18.5855 5.04711 13.2348C5.04711 11.7103 5.59191 10.4646 6.48408 9.48669C6.33927 9.13492 5.86195 7.71468 6.61916 5.79122C6.61916 5.79122 7.79023 5.4159 10.4553 7.22262C11.5676 6.91312 12.7607 6.75804 13.9459 6.75279C15.131 6.75804 16.325 6.91312 17.4395 7.22262C20.1014 5.4159 21.2708 5.79122 21.2708 5.79122C22.0299 7.71468 21.5523 9.13492 21.4075 9.48669C22.3017 10.4646 22.8428 11.7102 22.8428 13.2348C22.8428 18.5982 19.5803 19.7792 16.4749 20.1249C16.9751 20.5582 17.4208 21.4081 17.4208 22.7108C17.4208 24.5792 17.4046 26.083 17.4046 26.5429C17.4046 26.9145 17.6556 27.35 18.3626 27.2129C23.9007 25.3643 27.8916 20.1319 27.8916 13.9641C27.8916 6.25185 21.6477 0 13.9459 0Z" fill="#161614"/>
<path d="M5.22319 19.8923C5.19257 19.9616 5.08341 19.9824 4.98421 19.9349C4.88304 19.8893 4.82616 19.7947 4.85897 19.725C4.88905 19.6536 4.99821 19.6337 5.09916 19.6816C5.20055 19.7271 5.2583 19.8226 5.22319 19.8923ZM5.90919 20.5051C5.84269 20.5669 5.71264 20.5382 5.62438 20.4406C5.53316 20.3432 5.5161 20.2131 5.58358 20.1504C5.65216 20.0887 5.77827 20.1175 5.86971 20.215C5.96093 20.3135 5.97865 20.4428 5.90908 20.5052M6.37983 21.2893C6.2943 21.3487 6.15452 21.293 6.06822 21.1688C5.9828 21.0447 5.9828 20.8958 6.07008 20.8361C6.15671 20.7764 6.2943 20.8301 6.3818 20.9533C6.46711 21.0795 6.46711 21.2285 6.37972 21.2894M7.17565 22.1975C7.09919 22.2818 6.93644 22.2593 6.81722 22.1441C6.69538 22.0315 6.66136 21.8717 6.73804 21.7872C6.81536 21.7027 6.9791 21.7265 7.09919 21.8407C7.22027 21.9531 7.25713 22.114 7.17565 22.1975ZM8.20421 22.5042C8.17063 22.6135 8.01379 22.6632 7.85585 22.6167C7.69813 22.5689 7.59488 22.4407 7.62671 22.3302C7.65952 22.2202 7.81702 22.1684 7.97616 22.2181C8.13366 22.2657 8.23702 22.3929 8.20421 22.5042ZM9.37496 22.6341C9.37889 22.7494 9.24491 22.8449 9.0791 22.8469C8.9123 22.8506 8.77744 22.7574 8.77569 22.6441C8.77569 22.5278 8.90661 22.4332 9.0733 22.4304C9.23911 22.4272 9.37496 22.5197 9.37496 22.6341ZM10.5249 22.59C10.5448 22.7024 10.4296 22.8178 10.2649 22.8485C10.1031 22.878 9.95322 22.8087 9.93255 22.6973C9.91243 22.5821 10.0299 22.4668 10.1914 22.4369C10.3564 22.4082 10.5039 22.4758 10.5249 22.59Z" fill="#161614"/>
</g>
<defs>
<clipPath id="clip0_4_24">
<rect width="28" height="27.2741" fill="white"/>
</clipPath>
</defs>
</svg>
