<svg width="28" height="28" viewBox="0 0 28 28" fill="none" xmlns="http://www.w3.org/2000/svg">
<g clip-path="url(#clip0_4_30)">
<path d="M14 0C6.26795 0 0 6.26795 0 14C0 21.732 6.26795 27.9999 14 27.9999C21.732 27.9999 28 21.732 28 14C27.9999 6.26795 21.7319 0 14 0ZM10.2648 20.7683H7.19092V10.8376H10.2648V20.7683ZM8.71319 9.53713C7.7093 9.53713 6.89548 8.71667 6.89548 7.70475C6.89548 6.69272 7.70942 5.87231 8.71319 5.87231C9.71696 5.87231 10.5308 6.69272 10.5308 7.70475C10.5308 8.71673 9.71701 9.53713 8.71319 9.53713ZM21.7839 20.7683H18.725V15.5555C18.725 14.1258 18.1819 13.3277 17.0514 13.3277C15.8211 13.3277 15.1783 14.1589 15.1783 15.5555V20.7683H12.2301V10.8376H15.1783V12.1751C15.1783 12.1751 16.0651 10.5347 18.1708 10.5347C20.2766 10.5347 21.784 11.8205 21.784 14.4803L21.7839 20.7683Z" fill="url(#paint0_linear_4_30)"/>
</g>
<defs>
<linearGradient id="paint0_linear_4_30" x1="4.10049" y1="4.10049" x2="23.8995" y2="23.8995" gradientUnits="userSpaceOnUse">
<stop stop-color="#2489BE"/>
<stop offset="1" stop-color="#0575B3"/>
</linearGradient>
<clipPath id="clip0_4_30">
<rect width="28" height="28" fill="white"/>
</clipPath>
</defs>
</svg>
