<svg width="28" height="28" viewBox="0 0 28 28" fill="none" xmlns="http://www.w3.org/2000/svg">
<g clip-path="url(#clip0_4_28)">
<path d="M1.98213 13.944C1.98213 18.6791 4.73374 22.7709 8.72402 24.7101L3.01781 9.07574C2.33377 10.6075 1.98085 12.2664 1.98213 13.944ZM22.02 13.3403C22.02 11.862 21.489 10.8382 21.0336 10.0413C20.4271 9.05594 19.8588 8.22149 19.8588 7.23612C19.8588 6.13645 20.6928 5.1128 21.8676 5.1128C21.9206 5.1128 21.9708 5.11936 22.0226 5.12242C19.8943 3.17256 17.0588 1.98213 13.9445 1.98213C9.76539 1.98213 6.08866 4.12633 3.94971 7.37402C4.23034 7.38245 4.49478 7.38824 4.71952 7.38824C5.97066 7.38824 7.90751 7.23655 7.90751 7.23655C8.55243 7.19849 8.62844 8.14559 7.98428 8.22193C7.98428 8.22193 7.33618 8.29816 6.61503 8.33589L10.9715 21.2933L13.5893 13.442L11.7255 8.33556C11.0814 8.29783 10.4711 8.2216 10.4711 8.2216C9.82653 8.18376 9.9021 7.19817 10.5467 7.23622C10.5467 7.23622 12.5223 7.38802 13.6976 7.38802C14.9487 7.38802 16.8857 7.23622 16.8857 7.23622C17.5309 7.19817 17.6068 8.14526 16.9625 8.2216C16.9625 8.2216 16.3131 8.29783 15.5932 8.33556L19.9163 21.1948L21.1095 17.2076C21.6265 15.553 22.0201 14.3646 22.0201 13.3404L22.02 13.3403ZM14.1544 14.9904L10.5653 25.4197C11.6626 25.7429 12.8006 25.907 13.9445 25.9071C15.3375 25.9071 16.6734 25.6663 17.917 25.229C17.8838 25.1767 17.8553 25.1215 17.8318 25.0642L14.1544 14.9904ZM24.441 8.20487C24.4924 8.5859 24.5216 8.99492 24.5216 9.43489C24.5216 10.6488 24.2949 12.0134 23.6121 13.7196L19.9581 24.2842C23.5144 22.2103 25.9064 18.3574 25.9064 13.9443C25.9066 11.8645 25.3755 9.90877 24.441 8.20487ZM13.9445 0C6.25566 0 0 6.25522 0 13.944C0 21.6338 6.25566 27.8888 13.9445 27.8888C21.6331 27.8888 27.8896 21.6338 27.8896 13.944C27.8895 6.25522 21.6331 0 13.9445 0ZM13.9445 27.2496C6.60836 27.2496 0.639346 21.2807 0.639346 13.944C0.639346 6.60782 6.60803 0.639346 13.9445 0.639346C21.2805 0.639346 27.249 6.60782 27.249 13.944C27.249 21.2807 21.2805 27.2496 13.9445 27.2496Z" fill="#464342"/>
</g>
<defs>
<clipPath id="clip0_4_28">
<rect width="28" height="27.888" fill="white"/>
</clipPath>
</defs>
</svg>
